<?xml version="1.0" encoding="UTF-8" standalone="no"?>
<svg
   width="2120"
   height="905"
   xml:space="preserve"
   overflow="hidden"
   version="1.1"
   id="svg130"
   sodipodi:docname="grappa_logo_cleanup_v4.svg"
   inkscape:version="1.4 (86a8ad7, 2024-10-11)"
   xmlns:inkscape="http://www.inkscape.org/namespaces/inkscape"
   xmlns:sodipodi="http://sodipodi.sourceforge.net/DTD/sodipodi-0.dtd"
   xmlns="http://www.w3.org/2000/svg"
   xmlns:svg="http://www.w3.org/2000/svg"><defs
     id="defs134" /><sodipodi:namedview
     id="namedview132"
     pagecolor="#505050"
     bordercolor="#eeeeee"
     borderopacity="1"
     inkscape:pageshadow="0"
     inkscape:pageopacity="0"
     inkscape:pagecheckerboard="0"
     showgrid="false"
     inkscape:zoom="0.43026779"
     inkscape:cx="950.57081"
     inkscape:cy="457.8544"
     inkscape:window-width="1904"
     inkscape:window-height="1008"
     inkscape:window-x="0"
     inkscape:window-y="0"
     inkscape:window-maximized="0"
     inkscape:current-layer="g124"
     inkscape:showpageshadow="2"
     inkscape:deskcolor="#d1d1d1" /><g
     transform="translate(-675,-141)"
     id="g128"
     inkscape:label="all"
     inkscape:groupmode="layer"><path
       d="M 1206.5,350.5 V 846.317"
       stroke="#000000"
       stroke-width="20.625"
       stroke-miterlimit="8"
       fill="none"
       fill-rule="evenodd"
       id="path2"
       inkscape:label="sep" /><text
       font-family="'Miriam Libre', 'Miriam Libre_MSFontService', sans-serif"
       font-weight="400"
       font-size="367px"
       id="text4"
       inkscape:label="text"
       transform="translate(1287.65,710)">GRAPPA</text><g
       id="g126"
       inkscape:label="logo"><g
         id="g124"
         inkscape:label="glas"
         style="display:inline"><path
           d="M 761.79518,632.704 C 745.26229,525.424 850.6571,465.595 850.6571,465.595 l -32.23572,-254.77022 247.56512,0.0476 -33.4215,254.72262 c 0,0 105.3958,59.829 88.8629,167.109 -16.5329,107.28 -155.95106,95.44654 -179.48044,95.44654 -23.52938,0 -163.62039,11.83346 -180.15228,-95.44654 z"
           stroke="#000000"
           stroke-width="13.5986"
           fill="#ffffff"
           id="path12"
           sodipodi:nodetypes="cccccszc"
           inkscape:label="top" /><path
           d="m 937.60279,901.003 c -106.67397,80.23 -216.61546,75.87 -104.09662,75.87 l 205.54903,0.76085 c 121.5869,0.0991 13.4505,3.60915 -93.22252,-76.63085"
           stroke="#000000"
           stroke-width="13.5986"
           fill="#ffffff"
           id="path20"
           sodipodi:nodetypes="cccc"
           inkscape:label="bottom" /><path
           d="m 936.95705,733.19934 9.08676,10e-6 v 167.1394 h -9.30178 z"
           stroke="#000000"
           stroke-width="12.2953"
           fill="#28170b"
           id="path22"
           sodipodi:nodetypes="ccccc"
           inkscape:label="stilt" /><g
           inkscape:label="Layer 1"
           id="layer1"
           transform="matrix(1.3937971,0,0,1.3937971,715.43853,261.81353)"><path
             d="m 157.4759,249.62934 -36.42166,-43.06866 c -5.02897,-5.94784 -6.94429,-12.59414 -4.27834,-14.84839 2.66596,-2.25687 8.90381,0.73821 13.9325,6.68334 l 36.42193,43.06872 c 5.0287,5.94781 6.94429,12.59676 4.27834,14.85101 -2.66596,2.25422 -8.90381,-0.73822 -13.93277,-6.68602 z"
             fill-rule="evenodd"
             id="path27"
             inkscape:export-filename="/hits/fast/mbm/buhrjk/phd/kimmdy-examples/deps/kimmdy/www/favicon.png"
             inkscape:export-xdpi="96"
             inkscape:export-ydpi="96"
             sodipodi:nodetypes="cccccsc"
             style="stroke-width:0.264583" /><path
             d="m 130.7084,198.39563 c 5.02896,5.94784 6.94429,12.59679 4.27833,14.85101 -2.66595,2.25425 -8.9038,-0.74083 -13.93249,-6.68596"
             stroke="#000000"
             stroke-width="1.81901"
             stroke-miterlimit="8"
             fill="none"
             fill-rule="evenodd"
             id="path29"
             inkscape:export-filename="/hits/fast/mbm/buhrjk/phd/kimmdy-examples/deps/kimmdy/www/favicon.png"
             inkscape:export-xdpi="96"
             inkscape:export-ydpi="96"
             sodipodi:nodetypes="csc" /><path
             d="m 157.4759,249.62934 -36.42166,-43.06866 c -5.02897,-5.94784 -6.94429,-12.59414 -4.27834,-14.84839 2.66596,-2.25687 8.90381,0.73821 13.9325,6.68334 l 36.42193,43.06872 c 5.0287,5.94781 6.94429,12.59676 4.27834,14.85101 -2.66596,2.25422 -8.90381,-0.73822 -13.93277,-6.68602 z"
             stroke="#000000"
             stroke-width="1.81901"
             stroke-miterlimit="8"
             fill="none"
             fill-rule="evenodd"
             id="path31-0"
             inkscape:export-filename="/hits/fast/mbm/buhrjk/phd/kimmdy-examples/deps/kimmdy/www/favicon.png"
             inkscape:export-xdpi="96"
             inkscape:export-ydpi="96"
             sodipodi:nodetypes="cccccsc" /><path
             d="m 205.08526,291.15024 -42.91589,-36.6023 c -5.92564,-5.05354 -8.89243,-11.30297 -6.62679,-13.95936 2.26564,-2.65642 8.90592,-0.7144 14.83129,4.33914 l 42.91618,36.6023 c 5.92669,5.05354 8.89267,11.30559 6.62784,13.96201 -2.26748,2.65639 -8.90593,0.7117 -14.83263,-4.34179 z"
             fill-rule="evenodd"
             id="path33-9"
             inkscape:export-filename="/hits/fast/mbm/buhrjk/phd/kimmdy-examples/deps/kimmdy/www/favicon.png"
             inkscape:export-xdpi="96"
             inkscape:export-ydpi="96"
             sodipodi:nodetypes="ccscccc"
             style="stroke-width:0.264583" /><path
             d="m 170.37387,244.92772 c 5.92564,5.05354 8.89243,11.30559 6.62679,13.96201 -2.26564,2.65639 -8.90591,0.7117 -14.83129,-4.34179"
             stroke="#000000"
             stroke-width="1.81901"
             stroke-miterlimit="8"
             fill="none"
             fill-rule="evenodd"
             id="path35"
             inkscape:export-filename="/hits/fast/mbm/buhrjk/phd/kimmdy-examples/deps/kimmdy/www/favicon.png"
             inkscape:export-xdpi="96"
             inkscape:export-ydpi="96"
             sodipodi:nodetypes="csc" /><path
             d="m 205.08526,291.15024 -42.91589,-36.6023 c -5.92564,-5.05354 -8.89243,-11.30297 -6.62679,-13.95936 2.26564,-2.65642 8.90592,-0.7144 14.83129,4.33914 l 42.91618,36.6023 c 5.92669,5.05354 8.89267,11.30559 6.62784,13.96201 -2.26748,2.65639 -8.90593,0.7117 -14.83263,-4.34179 z"
             stroke="#000000"
             stroke-width="1.81901"
             stroke-miterlimit="8"
             fill="none"
             fill-rule="evenodd"
             id="path37"
             inkscape:export-filename="/hits/fast/mbm/buhrjk/phd/kimmdy-examples/deps/kimmdy/www/favicon.png"
             inkscape:export-xdpi="96"
             inkscape:export-ydpi="96"
             sodipodi:nodetypes="ccscccc" /><path
             d="M 161.84287,258.50079 126.9685,294.4416 c -4.81518,4.96359 -11.26655,6.51405 -14.40928,3.46343 -3.14274,-3.05065 -1.78701,-9.5435 3.02817,-14.50705 l 34.87464,-35.94087 c 4.81517,-4.96089 11.26628,-6.51134 14.40901,-3.46337 3.14274,3.05062 1.78701,9.54611 -3.02817,14.50705 z"
             fill-rule="evenodd"
             id="path39"
             inkscape:export-filename="/hits/fast/mbm/buhrjk/phd/kimmdy-examples/deps/kimmdy/www/favicon.png"
             inkscape:export-xdpi="96"
             inkscape:export-ydpi="96"
             sodipodi:nodetypes="ccscccc"
             style="stroke-width:0.264583" /><path
             d="m 115.58739,283.39798 c 4.81517,-4.96091 11.26628,-6.51405 14.40901,-3.46337 3.14301,3.05062 1.78727,9.54346 -3.0279,14.50699"
             stroke="#000000"
             stroke-width="1.81901"
             stroke-miterlimit="8"
             fill="none"
             fill-rule="evenodd"
             id="path41"
             inkscape:export-filename="/hits/fast/mbm/buhrjk/phd/kimmdy-examples/deps/kimmdy/www/favicon.png"
             inkscape:export-xdpi="96"
             inkscape:export-ydpi="96"
             sodipodi:nodetypes="ccc" /><path
             d="M 161.84287,258.50079 126.9685,294.4416 c -4.81518,4.96359 -11.26655,6.51405 -14.40928,3.46343 -3.14274,-3.05065 -1.78701,-9.5435 3.02817,-14.50705 l 34.87464,-35.94087 c 4.81517,-4.96089 11.26628,-6.51134 14.40901,-3.46337 3.14274,3.05062 1.78701,9.54611 -3.02817,14.50705 z"
             stroke="#000000"
             stroke-width="1.81901"
             stroke-miterlimit="8"
             fill="none"
             fill-rule="evenodd"
             id="path43"
             inkscape:export-filename="/hits/fast/mbm/buhrjk/phd/kimmdy-examples/deps/kimmdy/www/favicon.png"
             inkscape:export-xdpi="96"
             inkscape:export-ydpi="96"
             sodipodi:nodetypes="ccscccc" /><path
             d="m 204.6831,205.31713 -30.27589,39.89105 c -4.18044,5.5086 -10.39686,7.82899 -13.88514,5.18054 -3.48829,-2.64851 -2.92711,-9.25777 1.25307,-14.76634 l 30.2767,-39.89107 c 4.18041,-5.5086 10.3955,-7.82635 13.88541,-5.18052 3.48721,2.64845 2.92629,9.26039 -1.25415,14.76634 z"
             fill-rule="evenodd"
             id="path47"
             inkscape:export-filename="/hits/fast/mbm/buhrjk/phd/kimmdy-examples/deps/kimmdy/www/favicon.png"
             inkscape:export-xdpi="96"
             inkscape:export-ydpi="96"
             sodipodi:nodetypes="ccscccc"
             style="stroke-width:0.264583" /><path
             d="m 161.77514,235.62238 c 4.18017,-5.5086 10.39685,-7.82635 13.88514,-5.18055 3.48828,2.64848 2.9271,9.26039 -1.25307,14.76635"
             stroke="#000000"
             stroke-width="1.81901"
             stroke-miterlimit="8"
             fill="none"
             fill-rule="evenodd"
             id="path49"
             inkscape:export-filename="/hits/fast/mbm/buhrjk/phd/kimmdy-examples/deps/kimmdy/www/favicon.png"
             inkscape:export-xdpi="96"
             inkscape:export-ydpi="96"
             sodipodi:nodetypes="ccc" /><path
             d="m 204.6831,205.31713 -30.27589,39.89105 c -4.18044,5.5086 -10.39686,7.82899 -13.88514,5.18054 -3.48829,-2.64851 -2.92711,-9.25777 1.25307,-14.76634 l 30.2767,-39.89107 c 4.18041,-5.5086 10.3955,-7.82635 13.88541,-5.18052 3.48721,2.64845 2.92629,9.26039 -1.25415,14.76634 z"
             stroke="#000000"
             stroke-width="1.81901"
             stroke-miterlimit="8"
             fill="none"
             fill-rule="evenodd"
             id="path51"
             inkscape:export-filename="/hits/fast/mbm/buhrjk/phd/kimmdy-examples/deps/kimmdy/www/favicon.png"
             inkscape:export-xdpi="96"
             inkscape:export-ydpi="96"
             sodipodi:nodetypes="ccscccc" /><path
             d="m 143.5905,245.40132 c 0,-10.81346 8.58815,-19.57908 19.18239,-19.57908 10.59423,0 19.18239,8.76562 19.18239,19.57908 0,10.81347 -8.58816,19.57906 -19.18239,19.57906 -10.59424,0 -19.18239,-8.76559 -19.18239,-19.57906 z"
             stroke="#000000"
             stroke-width="1.81901"
             stroke-miterlimit="8"
             fill-rule="evenodd"
             id="path53"
             inkscape:export-filename="/hits/fast/mbm/buhrjk/phd/kimmdy-examples/deps/kimmdy/www/favicon.png"
             inkscape:export-xdpi="96"
             inkscape:export-ydpi="96"
             sodipodi:nodetypes="sssss" /><path
             d="m 108.13615,196.98279 c 0,-8.18351 6.87074,-14.81662 15.34592,-14.81662 8.47543,0 15.3459,6.63311 15.3459,14.81662 0,8.1835 -6.87047,14.81661 -15.3459,14.81661 -8.47518,0 -15.34592,-6.63311 -15.34592,-14.81661 z"
             stroke="#000000"
             stroke-width="1.81901"
             stroke-miterlimit="8"
             fill-rule="evenodd"
             id="path55"
             inkscape:export-filename="/hits/fast/mbm/buhrjk/phd/kimmdy-examples/deps/kimmdy/www/favicon.png"
             inkscape:export-xdpi="96"
             inkscape:export-ydpi="96"
             sodipodi:nodetypes="sssss" /><path
             d="m 96.229845,290.24799 c 0,-11.90882 9.654425,-21.56344 21.563655,-21.56344 11.90921,0 21.56365,9.65462 21.56365,21.56344 0,11.90886 -9.65444,21.56346 -21.56365,21.56346 -11.90923,0 -21.563655,-9.6546 -21.563655,-21.56346 z"
             stroke="#000000"
             stroke-width="1.81901"
             stroke-miterlimit="8"
             fill-rule="evenodd"
             id="path57"
             inkscape:export-filename="/hits/fast/mbm/buhrjk/phd/kimmdy-examples/deps/kimmdy/www/favicon.png"
             inkscape:export-xdpi="96"
             inkscape:export-ydpi="96"
             sodipodi:nodetypes="sssss" /><path
             d="m 182.21986,190.7651 c 0,-11.90884 9.59385,-21.56346 21.43136,-21.56346 11.83487,0 21.43136,9.65462 21.43136,21.56346 0,11.90885 -9.59649,21.56344 -21.43136,21.56344 -11.83751,0 -21.43136,-9.65459 -21.43136,-21.56344 z"
             stroke="#000000"
             stroke-width="1.81901"
             stroke-miterlimit="8"
             fill-rule="evenodd"
             id="path59"
             inkscape:export-filename="/hits/fast/mbm/buhrjk/phd/kimmdy-examples/deps/kimmdy/www/favicon.png"
             inkscape:export-xdpi="96"
             inkscape:export-ydpi="96"
             sodipodi:nodetypes="sssss" /><path
             d="m 197.30117,286.80846 c 0,-8.255 6.87128,-14.94891 15.34594,-14.94891 8.47463,0 15.34589,6.69391 15.34589,14.94891 0,8.25494 -6.87126,14.94887 -15.34589,14.94887 -8.47466,0 -15.34594,-6.69393 -15.34594,-14.94887 z"
             stroke="#000000"
             stroke-width="1.81901"
             stroke-miterlimit="8"
             fill-rule="evenodd"
             id="path61"
             inkscape:export-filename="/hits/fast/mbm/buhrjk/phd/kimmdy-examples/deps/kimmdy/www/favicon.png"
             inkscape:export-xdpi="96"
             inkscape:export-ydpi="96"
             sodipodi:nodetypes="sssss" /><path
             d="m 119.74647,186.11511 c 4.79632,-0.17719 9.44196,1.01608 13.59107,3.49269"
             stroke="#ffffff"
             stroke-width="1.81901"
             stroke-miterlimit="8"
             fill="none"
             fill-rule="evenodd"
             id="path85"
             inkscape:export-filename="/hits/fast/mbm/buhrjk/phd/kimmdy-examples/deps/kimmdy/www/favicon.png"
             inkscape:export-xdpi="96"
             inkscape:export-ydpi="96"
             sodipodi:nodetypes="cc" /><path
             d="m 196.47038,175.96701 c 5.92405,-1.5531 12.06772,-0.86781 17.69808,1.97377"
             stroke="#ffffff"
             stroke-width="3.63802"
             stroke-miterlimit="8"
             fill="none"
             fill-rule="evenodd"
             id="path87"
             inkscape:export-filename="/hits/fast/mbm/buhrjk/phd/kimmdy-examples/deps/kimmdy/www/favicon.png"
             inkscape:export-xdpi="96"
             inkscape:export-ydpi="96"
             sodipodi:nodetypes="cc" /><path
             d="m 109.95094,275.44992 c 5.92379,-1.5531 12.06824,-0.86781 17.69913,1.97376"
             stroke="#ffffff"
             stroke-width="3.63802"
             stroke-miterlimit="8"
             fill="none"
             fill-rule="evenodd"
             id="path89"
             inkscape:export-filename="/hits/fast/mbm/buhrjk/phd/kimmdy-examples/deps/kimmdy/www/favicon.png"
             inkscape:export-xdpi="96"
             inkscape:export-ydpi="96"
             sodipodi:nodetypes="cc" /><path
             d="m 206.66458,277.23568 c 4.69764,-0.9802 9.47858,-0.58112 13.9849,1.164"
             stroke="#ffffff"
             stroke-width="1.81901"
             stroke-miterlimit="8"
             fill="none"
             fill-rule="evenodd"
             id="path91"
             inkscape:export-filename="/hits/fast/mbm/buhrjk/phd/kimmdy-examples/deps/kimmdy/www/favicon.png"
             inkscape:export-xdpi="96"
             inkscape:export-ydpi="96"
             sodipodi:nodetypes="cc" /></g></g></g></g></svg>
